<?xml version="1.0" standalone="no"?>
<!DOCTYPE svg PUBLIC "-//W3C//DTD SVG 20010904//EN"
 "http://www.w3.org/TR/2001/REC-SVG-20010904/DTD/svg10.dtd">
<svg version="1.0" xmlns="http://www.w3.org/2000/svg"
 width="1137.000000pt" height="955.000000pt" viewBox="0 0 1137.000000 955.000000"
 preserveAspectRatio="xMidYMid meet">

<g transform="translate(0.000000,955.000000) scale(0.100000,-0.100000)"
fillRule="#000000" stroke="none">
<path d="M8685 9506 c-49 -12 -117 -28 -150 -35 -33 -7 -73 -17 -90 -21 -16
-4 -55 -13 -85 -19 -122 -25 -519 -113 -570 -126 -30 -7 -77 -19 -105 -25 -27
-6 -66 -15 -85 -20 -19 -4 -59 -13 -87 -19 -69 -14 -100 -21 -413 -92 -256
-58 -298 -68 -395 -89 -25 -5 -65 -14 -90 -20 -25 -5 -64 -14 -87 -20 -24 -5
-68 -14 -98 -20 -30 -5 -163 -35 -295 -66 -240 -55 -285 -65 -360 -82 -34 -7
-251 -123 -265 -142 -3 -3 -20 -12 -37 -19 -18 -8 -33 -16 -33 -20 0 -4 -16
-13 -35 -20 -19 -7 -35 -16 -35 -20 0 -4 -16 -13 -35 -20 -19 -7 -35 -16 -35
-20 0 -4 -16 -13 -35 -20 -19 -7 -35 -17 -35 -22 0 -5 -8 -9 -17 -9 -9 0 -24
-6 -32 -14 -9 -8 -41 -27 -71 -43 -69 -36 -104 -56 -110 -64 -3 -3 -17 -12
-32 -20 -21 -11 -3844 -2186 -3856 -2194 -5 -3 20 -65 26 -65 4 0 541 81 1194
181 l1188 180 732 -492 c1010 -679 995 -668 1008 -685 7 -7 19 -14 26 -14 8 0
14 -4 14 -10 0 -5 6 -10 14 -10 8 0 16 -4 18 -8 4 -11 156 -112 168 -112 6 0
10 -4 10 -10 0 -15 26 -12 42 4 8 7 24 17 36 20 12 4 22 12 22 17 0 5 6 9 14
9 8 0 21 6 28 14 8 7 24 17 36 20 12 4 22 12 22 17 0 5 6 9 14 9 8 0 21 6 28
13 7 7 24 17 38 23 37 17 534 314 540 323 3 5 15 11 28 15 12 4 22 11 22 16 0
4 11 11 25 14 14 4 25 11 25 16 0 6 6 10 14 10 14 0 647 376 656 390 3 4 15
10 28 14 12 4 22 12 22 17 0 5 9 9 20 9 11 0 23 7 26 15 4 8 12 15 18 15 7 0
156 86 332 191 175 105 339 203 364 217 25 13 52 30 60 37 8 6 22 15 30 19 8
3 29 15 45 26 17 11 37 23 45 27 8 4 132 77 275 163 143 87 274 165 290 174
17 9 44 25 60 36 17 11 37 23 45 27 8 3 33 18 55 32 22 14 56 34 76 46 38 21
500 298 546 327 16 10 37 22 48 28 11 6 34 19 50 30 17 11 37 23 46 27 17 9
634 378 677 405 15 10 36 22 47 28 11 6 34 19 50 30 17 11 37 23 46 27 37 18
249 148 249 153 0 3 -41 34 -90 70 -50 36 -106 76 -125 90 -19 14 -58 42 -87
63 -29 21 -94 69 -145 105 -50 37 -129 94 -174 127 -46 33 -94 68 -108 77 -14
9 -100 71 -191 137 -91 66 -204 148 -252 183 -48 35 -128 92 -177 128 -50 36
-131 94 -180 130 -50 36 -123 89 -163 119 -142 104 -133 102 -273 67z m-25
-95 c0 -5 -181 -109 -402 -232 -222 -122 -450 -249 -508 -282 -58 -33 -127
-72 -155 -85 -27 -14 -53 -29 -56 -34 -3 -5 -9 -9 -13 -9 -6 1 -54 -23 -91
-46 -11 -7 -32 -17 -47 -24 -16 -6 -28 -15 -28 -21 0 -5 -4 -7 -9 -4 -5 4 -11
2 -13 -3 -1 -5 -40 -27 -85 -50 -45 -23 -85 -46 -88 -52 -4 -5 -11 -7 -16 -4
-5 4 -9 1 -9 -4 0 -6 -4 -11 -8 -11 -8 0 -123 -60 -267 -140 -33 -18 -73 -40
-90 -49 -16 -9 -32 -18 -35 -21 -11 -11 -499 -280 -1515 -835 -1179 -644
-1651 -896 -1750 -933 -16 -7 -430 -73 -920 -147 -489 -75 -948 -144 -1019
-155 -155 -24 -168 -24 -164 -5 2 8 302 185 668 393 366 208 1142 650 1725
982 583 331 1272 723 1530 871 l470 267 480 106 c264 59 505 113 535 121 30 7
69 16 85 18 17 3 53 10 80 17 28 6 61 14 75 16 26 5 100 22 135 31 11 2 38 9
60 13 22 5 49 11 60 14 11 2 106 23 210 45 105 23 408 91 675 151 546 122 500
113 500 101z"/>
<path d="M9940 7543 c-377 -227 -692 -416 -700 -420 -8 -3 -33 -18 -55 -32
-56 -36 -77 -49 -100 -61 -11 -6 -33 -19 -50 -29 -16 -11 -47 -29 -67 -40 -21
-11 -57 -33 -80 -48 -62 -40 -81 -51 -103 -62 -11 -5 -36 -20 -55 -33 -19 -13
-42 -27 -50 -31 -8 -4 -28 -16 -45 -27 -16 -11 -37 -23 -45 -27 -8 -3 -33 -18
-55 -33 -22 -15 -47 -30 -55 -33 -8 -4 -28 -16 -45 -27 -16 -11 -37 -23 -45
-27 -8 -4 -31 -18 -50 -31 -19 -13 -44 -28 -55 -33 -11 -6 -29 -15 -40 -22
-55 -34 -103 -63 -120 -74 -38 -23 -100 -60 -185 -110 -414 -243 -2228 -1338
-2237 -1351 -10 -12 -12 -117 -8 -466 5 -490 16 -2108 17 -2643 l2 -332 29 17
c16 9 40 27 54 40 13 12 28 22 34 22 5 0 9 5 9 10 0 6 6 10 13 10 7 0 36 16
64 35 29 19 57 35 63 35 6 0 10 -53 10 -150 0 -82 2 -150 4 -150 2 0 82 -21
176 -46 94 -25 176 -44 182 -42 6 2 -67 24 -163 49 l-174 45 -3 327 c-2 287 0
327 13 327 31 0 710 -173 721 -184 17 -16 28 -666 11 -666 -7 0 -4 -5 5 -11
19 -10 68 14 68 33 0 6 -7 5 -15 -2 -9 -7 -17 -11 -19 -9 -2 2 -6 156 -8 343
-3 330 -2 339 17 350 11 6 23 16 27 21 4 6 8 6 8 2 0 -4 6 -3 13 3 10 10 91
59 188 116 10 6 27 18 37 27 10 10 21 17 24 17 3 0 30 15 59 33 30 18 70 43
89 54 19 12 41 27 48 33 6 6 12 7 12 3 0 -4 4 -3 8 3 7 11 115 74 126 74 3 0
7 -143 9 -318 2 -234 3 -185 5 188 l2 505 93 61 c50 34 165 109 254 167 l162
107 3 112 3 113 459 3 c412 2 457 4 452 18 -3 9 -6 35 -6 60 l0 44 -452 2
-453 3 0 1104 0 1103 70 41 c39 22 99 56 135 75 36 19 76 42 90 51 14 9 50 30
80 45 30 16 67 37 82 48 14 10 29 18 32 18 3 0 90 48 193 107 104 58 217 122
253 141 36 19 77 43 92 54 14 10 29 18 32 18 3 0 54 28 114 61 59 34 127 73
152 87 24 14 61 37 82 52 20 15 52 33 70 41 18 7 35 16 38 20 9 12 160 89 176
89 14 0 15 -57 9 -505 l-7 -505 23 -1 c13 0 33 -2 44 -3 75 -11 142 -18 157
-18 33 1 37 -23 39 -221 0 -108 4 -196 7 -194 31 14 71 30 152 63 52 20 111
44 130 52 26 12 70 15 175 14 77 -1 156 -4 175 -7 19 -3 41 -2 48 3 10 7 12
288 10 1373 l-3 1365 -685 -413z m-3082 -4347 c12 -3 25 -7 30 -9 4 -3 23 -8
42 -11 19 -3 59 -12 88 -20 29 -8 53 -14 55 -14 4 0 53 -12 157 -36 58 -14
114 -27 125 -29 78 -15 93 -29 50 -49 -14 -6 -25 -14 -25 -18 0 -4 -22 -17
-50 -30 -27 -13 -50 -27 -50 -32 0 -4 -4 -8 -10 -8 -9 0 -52 -26 -192 -117
-37 -23 -70 -43 -73 -43 -3 0 -11 -5 -18 -10 -30 -25 -115 -78 -135 -84 -12
-4 -22 -12 -22 -17 0 -5 -7 -9 -15 -9 -8 0 -15 -5 -15 -12 0 -6 -3 -8 -7 -5
-3 4 -12 2 -20 -4 -7 -7 -28 -9 -48 -6 -80 13 -705 191 -705 201 0 6 163 94
361 194 390 199 370 191 477 168z m592 -503 c0 -181 -4 -333 -8 -338 -4 -6
-19 -16 -34 -24 -16 -8 -28 -18 -28 -23 0 -4 -5 -8 -10 -8 -6 0 -38 -18 -71
-40 -33 -22 -64 -40 -68 -40 -4 0 -21 -11 -37 -25 -16 -14 -33 -25 -37 -25 -5
0 -28 -13 -52 -30 -24 -16 -48 -30 -54 -30 -6 0 -11 -4 -11 -8 0 -5 -22 -19
-50 -32 -27 -13 -57 -32 -66 -41 -9 -10 -21 -16 -25 -13 -5 3 -9 0 -9 -5 0 -6
-6 -11 -14 -11 -8 0 -16 -3 -18 -7 -5 -12 -69 -46 -74 -40 -5 4 -9 149 -18
540 -1 80 1 117 9 117 6 0 21 9 33 20 12 11 32 25 44 30 26 11 61 32 68 41 3
4 14 9 25 13 11 3 33 17 49 31 16 14 35 25 43 25 7 0 13 4 13 8 0 5 18 17 40
27 22 10 40 22 40 27 0 4 6 8 13 8 8 0 38 17 68 38 30 20 71 45 92 56 20 10
45 27 55 37 11 10 22 16 24 13 3 -2 13 5 24 15 43 44 44 39 44 -306z m-1075
12 c182 -53 335 -97 342 -98 7 -2 14 -5 16 -8 6 -5 17 -332 18 -519 1 -139 0
-145 -19 -143 -24 3 -653 159 -699 174 l-33 11 0 345 0 345 23 -6 c12 -3 171
-49 352 -101z"/>
<path d="M1090 5472 c0 -218 -3 -677 -7 -1019 l-6 -622 -26 -3 c-14 -2 50 -20
142 -41 223 -51 237 -56 237 -71 0 -14 -628 -406 -651 -406 -8 0 -166 41 -351
92 -278 76 -338 96 -338 110 0 15 -4 16 -26 6 l-25 -12 7 -675 c4 -372 8 -678
10 -680 2 -2 4 140 4 317 0 177 2 322 5 322 24 0 703 -175 711 -184 8 -7 13
-109 17 -323 l5 -313 -22 -1 c-19 -1 -18 -2 4 -8 30 -9 70 7 50 19 -9 6 -14
87 -20 326 -4 176 -4 322 -1 325 17 19 613 379 626 379 13 0 15 -43 17 -307 2
-202 4 -247 5 -129 l3 178 28 -5 c15 -3 573 -164 1241 -356 1100 -318 1221
-351 1287 -351 67 0 73 -2 76 -22 3 -20 42 -34 428 -146 234 -68 448 -131 475
-139 28 -8 91 -26 140 -40 50 -13 104 -28 120 -33 17 -5 41 -12 55 -15 14 -4
34 -11 45 -15 11 -5 47 -17 80 -26 33 -9 65 -19 72 -21 9 -4 12 366 12 1581
l1 1586 -28 5 c-15 3 -43 10 -62 15 -19 5 -71 18 -115 28 -44 11 -134 34 -200
52 -66 17 -131 34 -145 36 -14 3 -200 49 -415 104 -214 54 -970 246 -1680 425
-709 180 -1401 355 -1537 390 l-248 63 0 -396z m2545 -556 l460 -123 3 -462
c1 -298 -1 -461 -8 -461 -9 0 -373 96 -645 169 -60 17 -149 40 -197 53 l-88
22 0 463 c0 255 3 463 8 463 4 0 214 -56 467 -124z m1198 -298 l457 -122 0
-458 c0 -446 0 -458 -19 -458 -11 0 -206 50 -433 110 -227 61 -430 115 -450
121 l-38 10 0 459 c0 361 3 460 13 460 6 0 218 -55 470 -122z m-2398 -627
l440 -118 3 -463 2 -462 -22 5 c-13 3 -222 59 -464 124 l-442 118 -6 44 c-3
24 -6 233 -6 463 l0 420 28 -6 c15 -4 225 -60 467 -125z m889 -241 c83 -22
291 -77 461 -123 l310 -83 3 -462 c1 -254 -1 -462 -5 -462 -5 0 -215 56 -468
124 l-460 123 -3 461 c-1 254 1 462 4 462 3 0 74 -18 158 -40z m-1874 -384 l0
-324 -311 -191 c-170 -105 -316 -191 -323 -191 -19 0 -33 630 -14 641 7 4 150
93 318 197 168 105 311 191 318 191 9 1 12 -70 12 -323z m-1024 18 l341 -97 6
-156 c9 -212 9 -491 0 -491 -18 0 -704 177 -710 183 -3 4 -8 153 -11 332 -5
314 -4 325 14 325 10 0 172 -43 360 -96z m4347 -14 c226 -61 436 -117 465
-126 l52 -15 0 -459 c0 -253 -3 -460 -7 -460 -5 0 -216 55 -470 122 l-463 123
0 463 c0 254 2 462 5 462 3 0 191 -50 418 -110z"/>
<path d="M8815 5415 c-22 -8 -94 -31 -160 -51 -66 -20 -134 -42 -152 -50 -17
-8 -36 -14 -43 -14 -6 0 -39 -9 -73 -19 -34 -11 -93 -29 -132 -40 -127 -37
-145 -43 -145 -47 0 -2 203 -4 452 -4 426 1 455 2 496 20 25 11 49 20 54 20 6
0 24 6 41 14 18 8 124 48 236 89 237 86 237 86 -29 87 -91 0 -241 2 -335 5
-132 3 -179 1 -210 -10z"/>
<path d="M9710 5394 c-47 -22 -57 -26 -190 -79 -63 -26 -128 -52 -145 -60 -16
-7 -55 -23 -85 -35 -55 -22 -97 -40 -157 -65 l-32 -14 -1 -684 0 -684 65 31
64 31 3 638 3 639 200 84 c110 46 206 84 213 84 11 0 13 -49 10 -264 -3 -274
-3 -273 31 -139 9 34 17 43 41 48 l30 7 0 239 c0 131 -3 239 -7 239 -5 0 -24
-8 -43 -16z"/>
<path d="M9580 5213 c-8 -3 -42 -18 -75 -34 -33 -15 -87 -39 -120 -53 -33 -13
-73 -31 -88 -38 l-29 -13 5 -343 c3 -189 8 -346 11 -349 3 -3 24 6 48 19 40
24 189 104 251 135 l27 14 0 335 c0 184 -3 334 -7 333 -5 0 -15 -3 -23 -6z"/>
<path d="M8063 4943 c4 -108 7 -290 7 -405 l0 -208 470 0 470 0 0 383 c0 210
-3 392 -6 405 l-6 22 -471 0 -470 -1 6 -196z"/>
<path d="M10285 5086 c-16 -8 -88 -37 -160 -66 -71 -29 -146 -59 -165 -67 -19
-8 -44 -19 -55 -23 -107 -42 -111 -42 230 -36 l320 5 200 100 200 100 -270 0
c-208 0 -277 -3 -300 -13z"/>
<path d="M10704 4976 c-94 -46 -181 -87 -193 -91 -20 -6 -22 -11 -17 -53 3
-26 8 -99 11 -162 7 -139 14 -279 20 -380 12 -219 18 -348 17 -372 l-1 -28
177 0 c197 0 183 -4 295 81 31 24 82 62 113 84 30 22 86 63 123 91 37 28 76
56 87 63 15 9 -2 11 -86 10 -58 0 -139 0 -181 0 l-77 1 -7 38 c-4 20 -9 57
-11 82 -2 25 -8 68 -13 95 -10 49 -28 192 -37 290 -2 28 -9 82 -15 120 -6 39
-13 97 -16 130 -3 33 -8 65 -12 72 -4 8 -59 -14 -177 -71z m169 -23 c4 -37 13
-120 22 -183 38 -283 64 -535 56 -540 -163 -108 -343 -222 -346 -219 -3 4 -85
806 -85 837 0 12 330 183 341 176 3 -2 9 -34 12 -71z"/>
<path d="M10624 4187 c3 -16 6 -45 6 -63 0 -19 5 -34 11 -34 5 0 58 29 117 65
l107 66 -123 -2 -124 -2 6 -30z"/>
<path d="M9768 4852 c-40 -3 -41 -6 -57 -82 -13 -61 -57 -247 -82 -344 -11
-43 -29 -115 -39 -160 -26 -117 -77 -316 -81 -321 -3 -2 -27 -5 -54 -6 -28 -1
-78 -4 -112 -6 l-63 -5 0 -39 c0 -42 0 -42 66 -39 132 5 265 -50 364 -149 130
-131 175 -307 121 -467 l-18 -53 216 0 216 -1 18 61 c26 88 90 150 186 179
l71 22 71 -22 c93 -28 158 -89 185 -174 l18 -56 59 0 c50 0 58 2 53 16 -3 9
-6 160 -6 337 l0 322 -199 -3 -199 -3 -6 38 c-3 21 -8 90 -11 153 -3 63 -8
151 -10 195 -3 44 -7 121 -10 170 -2 50 -8 144 -11 210 -4 66 -8 134 -9 150
-1 17 -2 43 -3 58 l-2 28 -317 -3 c-175 -1 -335 -4 -355 -6z m590 -513 l2
-466 -31 -7 c-17 -3 -70 -6 -118 -6 l-86 0 -53 -82 -54 -81 -69 7 c-69 6 -69
6 -133 71 -60 62 -147 115 -188 115 -10 0 -18 2 -18 5 0 4 151 726 180 863
l12 53 276 -3 277 -3 3 -466z"/>
<path d="M10180 4780 c0 -3 -27 -124 -60 -268 -65 -286 -66 -292 -48 -274 7 7
29 12 50 12 31 0 39 4 43 23 4 18 75 500 75 509 0 2 -13 3 -30 3 -16 0 -30 -2
-30 -5z"/>
<path d="M9719 4231 l-46 -230 43 35 c23 19 44 40 47 47 5 14 10 377 5 377 -2
0 -24 -103 -49 -229z"/>
<path d="M9878 4077 c-120 -78 -218 -144 -218 -147 0 -3 22 -13 49 -23 61 -21
137 -80 175 -135 26 -38 33 -42 70 -42 41 0 42 1 95 85 l53 85 104 0 104 0 0
160 0 160 -107 -1 -108 0 -217 -142z"/>
<path d="M9495 4410 c-38 -22 -103 -56 -142 -77 l-73 -38 0 -164 0 -164 46 7
c26 3 68 6 93 6 l46 0 18 73 c10 39 25 99 32 132 8 33 23 98 35 145 30 123 29
126 -55 80z"/>
<path d="M8070 3855 l0 -405 405 0 c316 0 406 3 409 13 22 73 54 142 86 185
l40 52 0 280 0 280 -470 0 -470 0 0 -405z"/>
<path d="M11258 4102 c-48 -37 -139 -105 -203 -151 l-115 -84 0 -187 c0 -103
3 -249 7 -324 l6 -138 46 50 c25 27 117 121 204 209 l157 160 0 267 c0 146 -3
266 -7 266 -5 -1 -47 -31 -95 -68z"/>
<path d="M788 3883 c7 -3 16 -2 19 1 4 3 -2 6 -13 5 -11 0 -14 -3 -6 -6z"/>
<path d="M828 3873 c7 -3 16 -2 19 1 4 3 -2 6 -13 5 -11 0 -14 -3 -6 -6z"/>
<path d="M868 3863 c7 -3 16 -2 19 1 4 3 -2 6 -13 5 -11 0 -14 -3 -6 -6z"/>
<path d="M998 3833 c7 -3 16 -2 19 1 4 3 -2 6 -13 5 -11 0 -14 -3 -6 -6z"/>
<path d="M9292 3769 c-181 -30 -325 -188 -339 -370 -6 -85 12 -164 54 -236 31
-53 123 -138 159 -147 14 -4 47 -17 72 -29 83 -38 227 -26 334 29 82 43 165
148 193 249 51 175 -44 385 -211 466 -40 19 -172 51 -199 48 -5 -1 -34 -5 -63
-10z m144 -248 c112 -51 133 -187 43 -273 -88 -84 -224 -52 -273 64 -33 80 1
164 84 206 54 27 92 28 146 3z"/>
<path d="M10441 3376 c-49 -16 -126 -95 -138 -143 -17 -66 -7 -130 27 -184 57
-88 152 -124 253 -94 96 28 157 104 159 198 2 81 -11 115 -62 166 -67 67 -148
86 -239 57z m141 -145 c65 -58 25 -156 -63 -156 -84 0 -123 105 -58 159 41 34
80 34 121 -3z"/>
<path d="M1839 2195 c-184 -56 -341 -105 -349 -108 -8 -4 172 -4 400 -1 l415
5 247 92 c137 50 245 94 240 98 -4 4 -145 9 -313 11 l-307 5 -333 -102z"/>
<path d="M2695 2158 c-159 -66 -293 -123 -297 -126 -4 -4 -8 -286 -10 -627
l-3 -621 55 23 55 22 3 593 3 593 187 78 c104 42 193 77 200 77 9 0 12 -57 13
-222 l1 -223 17 55 c13 43 22 56 40 58 12 2 24 9 27 16 2 6 3 104 2 217 l-3
206 -290 -119z"/>
<path d="M158 2123 c7 -3 16 -2 19 1 4 3 -2 6 -13 5 -11 0 -14 -3 -6 -6z"/>
<path d="M198 2113 c7 -3 16 -2 19 1 4 3 -2 6 -13 5 -11 0 -14 -3 -6 -6z"/>
<path d="M2690 2034 l-145 -64 3 -313 c2 -171 5 -313 6 -314 1 -2 68 32 149
75 l147 77 0 303 c0 166 -3 302 -7 301 -5 0 -73 -29 -153 -65z"/>
<path d="M348 2073 c7 -3 16 -2 19 1 4 3 -2 6 -13 5 -11 0 -14 -3 -6 -6z"/>
<path d="M388 2063 c7 -3 16 -2 19 1 4 3 -2 6 -13 5 -11 0 -14 -3 -6 -6z"/>
<path d="M538 2023 c7 -3 16 -2 19 1 4 3 -2 6 -13 5 -11 0 -14 -3 -6 -6z"/>
<path d="M1430 1660 l0 -370 435 0 435 0 0 248 c0 137 -3 304 -7 370 l-6 122
-429 0 -428 0 0 -370z"/>
<path d="M578 2013 c7 -3 16 -2 19 1 4 3 -2 6 -13 5 -11 0 -14 -3 -6 -6z"/>
<path d="M3302 1907 l-224 -92 264 -3 265 -2 194 94 194 95 -235 0 -235 -1
-223 -91z"/>
<path d="M728 1973 c7 -3 16 -2 19 1 4 3 -2 6 -13 5 -11 0 -14 -3 -6 -6z"/>
<path d="M4000 1940 c-13 -8 -12 -10 3 -10 11 0 17 -8 17 -22 1 -13 7 -75 15
-138 8 -63 21 -173 30 -245 8 -71 19 -161 25 -200 19 -140 29 -123 -137 -232
-82 -53 -157 -97 -167 -97 -18 -1 -22 22 -57 374 -21 206 -38 383 -39 392 0
12 27 32 88 62 48 25 84 45 80 45 -4 1 -46 -18 -93 -41 l-85 -42 0 -61 c0 -86
39 -818 45 -832 3 -10 44 -13 156 -13 l152 0 202 147 202 148 -157 3 -157 2
-12 113 c-7 61 -21 173 -31 247 -10 74 -26 197 -36 273 -10 75 -20 137 -23
137 -4 0 -13 -5 -21 -10z"/>
<path d="M2917 1543 c-30 -126 -76 -317 -102 -425 l-48 -197 -106 -3 -106 -3
0 -35 0 -35 100 -5 c126 -7 207 -42 294 -125 84 -80 124 -169 129 -291 3 -63
0 -107 -11 -143 l-15 -51 193 0 193 0 7 32 c18 84 89 164 164 186 153 46 304
-37 336 -186 7 -33 7 -33 53 -26 26 4 48 8 50 9 1 1 0 138 -4 304 l-7 301
-182 0 -183 0 -6 83 c-3 45 -13 210 -21 367 -8 157 -17 327 -21 378 l-6 92
-323 0 -323 0 -55 -227z m631 -250 l-3 -438 -105 -5 -105 -5 -48 -73 -48 -74
-72 7 c-69 7 -74 9 -117 55 -51 53 -106 91 -163 110 -28 9 -38 17 -35 29 2 9
42 199 89 423 l84 408 263 0 262 0 -2 -437z"/>
<path d="M3385 1688 c-6 -16 -105 -458 -105 -467 0 -4 18 -5 39 -3 34 3 41 8
45 30 5 26 66 437 66 447 0 11 -41 4 -45 -7z"/>
<path d="M2961 1200 c-19 -96 -36 -181 -39 -189 -3 -8 10 -2 30 13 l36 27 7
112 c4 62 5 135 3 162 -3 43 -8 25 -37 -125z"/>
<path d="M3111 1048 l-203 -132 51 -18 c54 -20 138 -89 160 -132 12 -21 22
-26 52 -26 35 0 39 3 84 75 l46 75 100 0 99 0 0 145 0 145 -94 0 -93 0 -202
-132z"/>
<path d="M7280 1569 l-25 -20 33 16 c17 8 32 18 32 20 0 10 -16 4 -40 -16z"/>
<path d="M7079 1433 c-13 -17 -13 -17 6 -3 11 8 22 16 24 17 2 2 0 3 -6 3 -6
0 -17 -8 -24 -17z"/>
<path d="M2683 1317 l-133 -72 0 -142 0 -143 54 0 c29 0 67 3 84 6 l31 6 46
197 c26 108 48 202 50 209 3 6 3 12 2 12 -1 0 -62 -33 -134 -73z"/>
<path d="M6955 1349 c-22 -16 -47 -35 -55 -42 -8 -7 -26 -20 -40 -30 -13 -9
-20 -17 -15 -17 5 0 36 19 70 42 92 64 109 78 94 78 -8 0 -32 -14 -54 -31z"/>
<path d="M6385 1322 c12 -11 154 -47 161 -39 3 2 -26 12 -63 21 -37 9 -77 19
-88 23 -13 3 -17 2 -10 -5z"/>
<path d="M6575 1273 c10 -10 131 -43 156 -43 17 0 5 10 -17 14 -18 4 -86 21
-129 33 -13 3 -17 2 -10 -4z"/>
<path d="M1432 848 l3 -373 369 0 369 0 17 51 c23 66 46 111 81 155 l29 37 0
251 0 251 -435 0 -435 0 2 -372z"/>
<path d="M3798 1128 c2 -29 6 -55 8 -57 3 -4 174 99 174 105 0 2 -42 4 -94 4
l-93 0 5 -52z"/>
<path d="M4278 992 l-187 -137 -1 -293 0 -294 190 194 189 193 1 238 c0 130
-1 237 -2 237 -2 0 -87 -62 -190 -138z"/>
<path d="M2519 752 c-106 -35 -191 -111 -238 -212 -22 -46 -26 -69 -26 -140 0
-72 4 -94 28 -146 36 -77 113 -154 192 -191 52 -24 72 -28 155 -28 78 0 104 4
144 23 110 50 193 148 222 261 67 264 -215 519 -477 433z m199 -219 c43 -32
65 -69 70 -121 9 -97 -48 -163 -147 -170 -105 -6 -171 54 -171 157 0 71 26
115 83 142 52 24 127 21 165 -8z"/>
<path d="M1310 356 l0 -56 436 0 437 0 -7 47 c-3 25 -7 47 -9 49 -1 1 -194 5
-429 9 l-428 7 0 -56z"/>
<path d="M3615 397 c-67 -31 -125 -118 -125 -187 0 -101 102 -200 205 -200
105 0 204 99 205 204 0 52 -43 129 -92 163 -48 32 -143 42 -193 20z m136 -110
c69 -53 31 -167 -56 -167 -85 0 -125 115 -57 166 21 17 92 17 113 1z"/>
</g>
</svg>
